<svg id="flewid-logo" xmlns="http://www.w3.org/2000/svg" viewBox="0 0 242.3 32.9"><path class="st0" d="M0 1.3C0 .8.4.4.8.4h18c.5 0 .8.4.8.9V5c0 .5-.4.9-.8.9h-13v8.6h10.9c.4 0 .8.4.8.9v3.7c0 .5-.4.9-.8.9H5.8v11.6c0 .5-.4.9-.8.9H.8c-.4-.1-.8-.5-.8-1V1.3zM42.7 1.3c0-.5.4-.9.8-.9h4.1c.4 0 .8.4.8.9v25.6h11.3c.5 0 .8.4.8.9v3.7c0 .5-.4.9-.8.9H43.5c-.5 0-.8-.4-.8-.9V1.3zM82.8 1.3c0-.5.4-.9.8-.9h18c.5 0 .8.4.8.9V5c0 .5-.4.9-.8.9H88.5v7.5h10.9c.4 0 .8.4.8.9v3.8c0 .5-.4.9-.8.9H88.5v8h13.1c.5 0 .8.4.8.9v3.7c0 .5-.4.9-.8.9h-18c-.5 0-.8-.4-.8-.9V1.3zM123.8 1.6c-.2-.6.2-1.1.8-1.1h4.1c.4 0 .7.3.8.6l4.6 18.2h.2l7-18.8c.1-.3.3-.5.8-.5h.8c.4 0 .7.2.8.5l7.1 18.8h.2l4.5-18.2c.1-.3.4-.6.8-.6h4.1c.6 0 1 .5.8 1.1l-8.4 30.7c-.1.4-.4.6-.8.6h-.7c-.4 0-.7-.2-.8-.5l-7.9-20.7h-.2l-7.8 20.7c-.1.3-.3.5-.8.5h-.7c-.4 0-.7-.3-.8-.6l-8.5-30.7zM183.9 1.3c0-.5.4-.9.8-.9h4.1c.4 0 .8.4.8.9v30.2c0 .5-.4.9-.8.9h-4.1c-.4 0-.8-.4-.8-.9V1.3zM215.5 1.3c0-.5.4-.9.8-.9h10.5c8.5 0 15.5 7.2 15.5 15.9 0 8.9-7 16-15.5 16h-10.5c-.4 0-.8-.4-.8-.9V1.3zm10.7 25.5c5.8 0 10-4.5 10-10.5 0-5.9-4.2-10.4-10-10.4h-5v20.9h5z" stroke="none" fill="#ffffff" stroke-width="1px"></path></svg>